HIERARCHY
ROOT joint_Root
{
	OFFSET 0.0 0.0 0.0
	CHANNELS 6 Xposition Yposition Zposition Zrotation Xrotation Yrotation 
	JOINT Hips
	{
		OFFSET 4.5925 91.4895 -427.239
		CHANNELS 6 Xposition Yposition Zposition Zrotation Xrotation Yrotation 
		JOINT Spine
		{
			OFFSET 15.7357 0.0 0.0
			CHANNELS 6 Xposition Yposition Zposition Zrotation Xrotation Yrotation 
			JOINT Chest
			{
				OFFSET 8.98455 -0.406207 0.0
				CHANNELS 6 Xposition Yposition Zposition Zrotation Xrotation Yrotation 
				JOINT Neck
				{
					OFFSET 16.3773 0.0 0.0
					CHANNELS 6 Xposition Yposition Zposition Zrotation Xrotation Yrotation 
					JOINT Head
					{
						OFFSET 6.45672 0.0 0.0
						CHANNELS 6 Xposition Yposition Zposition Zrotation Xrotation Yrotation 
						End Site
						{
							OFFSET 0.0 0.0 0.0
						}
					}
				}
				JOINT Shoulder_L
				{
					OFFSET 12.9942 -0.242716 4.98039
					CHANNELS 6 Xposition Yposition Zposition Zrotation Xrotation Yrotation 
					JOINT UpperArm_L
					{
						OFFSET 5.34809 0.0 0.0
						CHANNELS 6 Xposition Yposition Zposition Zrotation Xrotation Yrotation 
						JOINT LowerArm_L
						{
							OFFSET 24.3286 1.87007e-05 0.0
							CHANNELS 6 Xposition Yposition Zposition Zrotation Xrotation Yrotation 
							JOINT Hand_L
							{
								OFFSET 22.2916 0.0 0.0
								CHANNELS 6 Xposition Yposition Zposition Zrotation Xrotation Yrotation 
								End Site
								{
									OFFSET 0.0 0.0 0.0
								}
							}
						}
					}
				}
				JOINT Shoulder_R
				{
					OFFSET 12.9945 -0.242716 -4.98039
					CHANNELS 6 Xposition Yposition Zposition Zrotation Xrotation Yrotation 
					JOINT UpperArm_R
					{
						OFFSET -5.34813 0.0 0.0
						CHANNELS 6 Xposition Yposition Zposition Zrotation Xrotation Yrotation 
						JOINT LowerArm_R
						{
							OFFSET -24.3289 0.000322201 0.0
							CHANNELS 6 Xposition Yposition Zposition Zrotation Xrotation Yrotation 
							JOINT Hand_R
							{
								OFFSET -22.2915 -0.000108084 0.0
								CHANNELS 6 Xposition Yposition Zposition Zrotation Xrotation Yrotation 
								End Site
								{
									OFFSET 0.0 0.0 0.0
								}
							}
						}
					}
				}
			}
		}
		JOINT UpperLeg_L
		{
			OFFSET -2.19248 -6.46944 0.0
			CHANNELS 6 Xposition Yposition Zposition Zrotation Xrotation Yrotation 
			JOINT LowerLeg_L
			{
				OFFSET 39.0811 0.0 -1.23785e-05
				CHANNELS 6 Xposition Yposition Zposition Zrotation Xrotation Yrotation 
				JOINT Foot_L
				{
					OFFSET 40.9854 0.0 -1.26872e-05
					CHANNELS 6 Xposition Yposition Zposition Zrotation Xrotation Yrotation 
					JOINT Toes_L
					{
						OFFSET 11.7543 0.0 0.0
						CHANNELS 6 Xposition Yposition Zposition Zrotation Xrotation Yrotation 
						End Site
						{
							OFFSET 0.0 0.0 0.0
						}
					}
				}
			}
		}
		JOINT UpperLeg_R
		{
			OFFSET -2.19251 6.46944 0.0
			CHANNELS 6 Xposition Yposition Zposition Zrotation Xrotation Yrotation 
			JOINT LowerLeg_R
			{
				OFFSET -39.0811 -0.00228153 -0.0401928
				CHANNELS 6 Xposition Yposition Zposition Zrotation Xrotation Yrotation 
				JOINT Foot_R
				{
					OFFSET -40.9854 0.0 0.0
					CHANNELS 6 Xposition Yposition Zposition Zrotation Xrotation Yrotation 
					JOINT Toes_R
					{
						OFFSET -11.7543 0.0 0.0
						CHANNELS 6 Xposition Yposition Zposition Zrotation Xrotation Yrotation 
						End Site
						{
							OFFSET 0.0 0.0 0.0
						}
					}
				}
			}
		}
	}
}
MOTION
Frames:	6
Frame Time:	0.0333333
0.000000 0.000000 0.000000 0.000000 0.000000 -0.000000 -3.360520 83.751500 -3.162770 85.696100 -0.582538 10.175500 15.735700 0.000005 -0.000001 83.238100 81.848600 -82.270200 8.984550 -0.406207 -0.000000 8.443740 -1.904820 2.074720 16.377300 -0.000001 -0.000001 -1.859400 -2.368290 1.024920 6.456720 -0.000001 -0.000000 -1.821240 -0.240035 1.231490 12.994200 -0.242716 4.980390 -91.238700 4.396720 -74.248300 5.348090 -0.000007 -0.000001 -67.580700 27.993000 -9.180990 24.328600 0.000019 0.000005 12.768300 22.137300 -31.021000 22.291600 -0.000001 0.000005 15.437500 5.232390 1.874880 12.994500 -0.242716 -4.980390 88.145000 10.732800 -80.134300 -5.348130 -0.000001 -0.000004 -59.540200 26.610000 -10.257200 -24.328900 0.000322 -0.000009 0.179498 0.344503 -27.581200 -22.291500 -0.000108 -0.000004 12.702800 5.367580 -1.878380 -2.192480 -6.469440 -0.000000 -168.079000 -11.817600 -16.129000 39.081100 -0.000007 -0.000012 -0.291554 0.175889 58.899100 40.985400 -0.000006 -0.000013 1.930430 11.068800 -82.357900 11.754300 -0.000000 0.000003 -0.000121 -0.001212 -16.623900 -2.192510 6.469440 -0.000001 -177.176000 12.963200 166.032000 -39.081100 -0.002282 -0.040193 0.057096 -0.035510 56.611200 -40.985400 0.000008 0.000006 9.346140 4.454740 -83.519800 -11.754300 -0.000006 -0.000006 -0.484731 -0.594426 -16.195600
0.000000 0.000000 0.000000 0.000000 0.000000 -0.000000 -3.606440 86.308600 -2.068600 85.253500 1.204990 10.368800 15.735700 0.000005 -0.000001 82.198100 82.711200 -82.134500 8.984550 -0.406207 -0.000000 6.680790 -1.973220 0.242209 16.377300 -0.000001 -0.000001 -0.299648 -2.521250 0.953604 6.456720 -0.000001 -0.000000 -0.635936 -1.036760 2.809680 12.994200 -0.242716 4.980390 -91.241500 4.137750 -73.281900 5.348090 -0.000007 -0.000001 -68.180500 26.433600 -7.890920 24.328600 0.000019 0.000005 9.473980 18.923300 -27.225600 22.291600 -0.000001 0.000005 15.182200 5.114180 4.788770 12.994500 -0.242716 -4.980390 88.195700 9.468800 -79.158800 -5.348130 -0.000001 -0.000004 -60.874600 19.273300 -8.855500 -24.328900 0.000322 -0.000009 -1.318130 -2.118630 -31.815200 -22.291500 -0.000108 -0.000004 5.722390 5.406860 -3.198120 -2.192480 -6.469440 -0.000000 -167.659000 -10.565700 -11.584800 39.081100 -0.000007 -0.000012 -0.236901 0.192595 50.890500 40.985400 -0.000006 -0.000013 1.363730 11.849100 -78.982000 11.754300 -0.000000 0.000003 -0.000093 -0.000970 -16.614800 -2.192510 6.469440 -0.000001 -177.474000 15.651300 171.408000 -39.081100 -0.002282 -0.040193 0.053906 -0.045458 48.093200 -40.985400 0.000008 0.000006 9.326290 6.144670 -79.828600 -11.754300 -0.000006 -0.000006 -0.606100 -0.746380 -16.639100
0.000000 0.000000 0.000000 0.000000 0.000000 -0.000000 -3.441600 89.096600 -1.253320 85.834300 1.396310 8.762350 15.735700 0.000005 -0.000001 82.296700 84.258200 -83.444400 8.984550 -0.406207 -0.000000 3.601040 -1.495660 -2.246020 16.377300 -0.000001 -0.000001 1.768290 -1.966370 0.818006 6.456720 -0.000001 -0.000000 0.466090 -0.942529 3.955670 12.994200 -0.242716 4.980390 -91.050100 3.182970 -71.727600 5.348090 -0.000007 -0.000001 -69.096300 24.531100 -4.812440 24.328600 0.000019 0.000005 8.565840 17.236500 -26.945000 22.291600 -0.000001 0.000005 11.918700 5.156150 3.776730 12.994500 -0.242716 -4.980390 88.331900 7.701050 -77.737800 -5.348130 -0.000001 -0.000004 -54.011700 16.167800 -13.168000 -24.328900 0.000322 -0.000009 -1.619280 -1.789510 -42.203800 -22.291500 -0.000108 -0.000004 8.133930 5.489100 -6.047850 -2.192480 -6.469440 -0.000000 -168.808000 -10.811800 -7.319470 39.081100 -0.000007 -0.000012 -0.153161 0.180613 40.298600 40.985400 -0.000006 -0.000013 0.501919 11.729100 -74.190100 11.754300 -0.000000 0.000003 -0.000065 -0.000715 -16.605200 -2.192510 6.469440 -0.000001 -178.238000 16.500800 175.295000 -39.081100 -0.002282 -0.040193 0.036200 -0.042122 38.005300 -40.985400 0.000008 0.000006 8.632400 8.238670 -74.212300 -11.754300 -0.000006 -0.000006 -0.737729 -0.901962 -17.636400
0.000000 0.000000 0.000000 0.000000 0.000000 -0.000000 -2.877100 91.084900 -0.914330 86.560700 0.641371 6.830080 15.735700 0.000005 -0.000001 80.376600 85.761200 -82.499000 8.984550 -0.406207 -0.000000 0.572279 -1.283580 -4.235470 16.377300 -0.000001 -0.000001 3.538000 -0.663320 0.251776 6.456720 -0.000001 -0.000000 1.316750 0.298405 4.136170 12.994200 -0.242716 4.980390 -90.722400 1.990140 -70.043300 5.348090 -0.000007 -0.000001 -69.917200 22.337900 -0.415361 24.328600 0.000019 0.000005 10.471700 18.580400 -30.115000 22.291600 -0.000001 0.000005 7.947380 5.229330 1.955830 12.994500 -0.242716 -4.980390 88.818200 5.245850 -77.285300 -5.348130 -0.000001 -0.000004 -44.243700 6.438020 -22.531000 -24.328900 0.000322 -0.000009 -1.183910 -0.903041 -52.539400 -22.291500 -0.000108 -0.000004 13.881700 5.529310 -7.735410 -2.192480 -6.469440 -0.000000 -170.383000 -11.620500 -4.016140 39.081100 -0.000007 -0.000012 -0.112790 0.189712 30.733100 40.985400 -0.000006 -0.000013 -0.072675 11.114400 -69.721600 11.754300 -0.000000 0.000003 -0.000055 -0.000618 -16.601500 -2.192510 6.469440 -0.000001 -179.536000 18.770400 177.441000 -39.081100 -0.002282 -0.040193 0.024244 -0.036194 30.054200 -40.985400 0.000008 0.000006 8.041850 12.198300 -68.875300 -11.754300 -0.000006 -0.000006 -0.809716 -0.975080 -18.846100
0.000000 0.000000 0.000000 0.000000 0.000000 -0.000000 -2.240430 92.069000 -0.943452 86.523700 -0.781965 5.068390 15.735700 0.000005 -0.000001 82.125200 86.771800 -84.541200 8.984550 -0.406207 -0.000000 -1.380530 -0.691663 -4.838750 16.377300 -0.000001 -0.000001 3.721370 0.477468 -0.656558 6.456720 -0.000001 -0.000000 1.432430 1.374460 3.403760 12.994200 -0.242716 4.980390 -90.773200 1.990340 -68.766700 5.348090 -0.000007 -0.000001 -68.915400 22.717800 2.749750 24.328600 0.000019 0.000005 11.024900 17.303000 -33.228400 22.291600 -0.000001 0.000005 5.862250 5.264410 1.047560 12.994500 -0.242716 -4.980390 89.457000 2.556780 -78.018000 -5.348130 -0.000001 -0.000004 -35.231300 -10.863400 -34.473800 -24.328900 0.000322 -0.000009 -7.877380 -5.277170 -56.379900 -22.291500 -0.000108 -0.000004 20.613100 5.549490 -8.638870 -2.192480 -6.469440 -0.000000 -171.006000 -13.551100 -2.709930 39.081100 -0.000007 -0.000012 -0.088417 0.188074 25.179100 40.985400 -0.000006 -0.000013 -0.087224 11.112600 -67.068000 11.754300 -0.000000 0.000003 -0.000051 -0.000575 -16.599900 -2.192510 6.469440 -0.000001 179.960000 21.221300 177.996000 -39.081100 -0.002282 -0.040193 0.017725 -0.030543 25.262700 -40.985400 0.000008 0.000006 7.398360 16.701500 -65.905700 -11.754300 -0.000006 -0.000006 -0.105142 -0.168670 -18.852600
0.000000 0.000000 0.000000 0.000000 0.000000 -0.000000 -1.646300 92.270300 -1.026640 86.912900 -1.692140 4.441710 15.735700 0.000005 -0.000001 91.834000 86.998100 -94.527400 8.984550 -0.406207 -0.000000 -1.749840 0.415605 -5.379210 16.377300 -0.000001 -0.000001 2.827310 0.919580 -1.327510 6.456720 -0.000001 -0.000000 0.557622 1.458580 2.751970 12.994200 -0.242716 4.980390 -91.084400 2.668290 -67.874700 5.348090 -0.000007 -0.000001 -66.293300 25.088400 3.658280 24.328600 0.000019 0.000005 11.125500 16.183600 -35.205300 22.291600 -0.000001 0.000005 5.791010 5.286600 0.445378 12.994500 -0.242716 -4.980390 90.365700 -2.015860 -79.698500 -5.348130 -0.000001 -0.000004 -33.246000 -33.377400 -45.532500 -24.328900 0.000322 -0.000009 -11.246800 -8.518360 -53.314300 -22.291500 -0.000108 -0.000004 20.660100 5.599650 -11.379300 -2.192480 -6.469440 -0.000000 -171.716000 -15.671300 -2.457950 39.081100 -0.000007 -0.000012 -0.075466 0.171453 23.757100 40.985400 -0.000006 -0.000013 0.413343 11.966500 -66.450700 11.754300 -0.000000 0.000003 -0.000060 -0.000662 -16.603200 -2.192510 6.469440 -0.000001 178.817000 23.390000 178.935000 -39.081100 -0.002282 -0.040193 0.011633 -0.020090 22.487300 -40.985400 0.000008 0.000006 7.251570 20.213600 -65.703400 -11.754300 -0.000006 -0.000006 -0.547636 -0.671274 -18.825400
